<?xml version="1.0" encoding="UTF-8"?>
<svg width="17px" height="18px" viewBox="0 0 17 18" version="1.1" xmlns="http://www.w3.org/2000/svg" xmlns:xlink="http://www.w3.org/1999/xlink">
    <title>Fill 533</title>
    <defs>
        <path d="M295.9999,0 C298.2091,0 300,1.789 300,4.0043 L300,27.9957 C300,30.2072 298.2003,32 295.9999,32 L4.0001,32 C1.7909,32 0,30.211 0,27.9957 L0,4.0043 C0,1.7928 1.7997,0 4.0001,0 L295.9999,0 Z" id="path-1"></path>
        <path d="M295.9999,0 C298.2091,0 300,1.789 300,4.0043 L300,27.9957 C300,30.2072 298.2003,32 295.9999,32 L4.0001,32 C1.7909,32 0,30.211 0,27.9957 L0,4.0043 C0,1.7928 1.7997,0 4.0001,0 L295.9999,0 Z" id="path-3"></path>
        <path d="M1.2215,0 L9.4737,8.2462 L16.5368,15.3044 C17.1544,15.9215 17.1544,16.9256 16.5368,17.5427 C15.9461176,18.1330059 15.008108,18.1365491 14.4058267,17.6413692 L14.297,17.5427 L8.3413,10.8879 L7.4916,11.737 L1.0496,5.2995 C0.4491,4.6994 0.0915,3.8852 0.0156,2.9447 C-0.0436888889,2.21127778 0.0670567901,1.41654198 0.336459259,0.629180658 L0.4449,0.3344 L0.5766,0 L1.2215,0 Z" id="path-5"></path>
        <path d="M5.6874,0 L8,2.3136 L2.7907,7.5253 C2.1316,8.1847 1.0838,8.1312 0.4782,7.5253 C-0.121894118,6.92492353 -0.157193772,5.9702218 0.372301038,5.32816 L0.4782,5.2116 L5.6874,0 Z" id="path-7"></path>
        <path d="M4.4201,0 L5.136,0.716 L2.3914,3.4605 L3.1074,4.1765 L5.852,1.4319 L6.568,2.1479 L3.8233,4.8925 L4.5394,5.6085 L7.284,2.8639 L8,3.58 L4.4201,7.1599 C3.9821,7.5978 3.4006,7.8594 2.7826,7.8963 C2.67826667,7.9025 2.575,7.92034444 2.47434074,7.9490037 L2.3255,8 L0,5.6745 C0.0589,5.528 0.0944,5.374 0.1037,5.2174 C0.136588889,4.66806667 0.346860494,4.14757284 0.700732647,3.73106804 L0.8401,3.5799 L4.4201,0 Z" id="path-9"></path>
    </defs>
    <g id="Page-4" stroke="none" stroke-width="1" fill="none" fill-rule="evenodd">
        <g id="project-react-cursor" transform="translate(-312.000000, -276.000000)">
            <g id="Group-519" transform="translate(301.000000, 270.000000)">
                <g id="Group-515">
                    <mask id="mask-2" fill="white">
                        <use xlink:href="#path-1"></use>
                    </mask>
                    <g id="Clip-514"></g>
                    <path d="M0,4.0043 C0,1.7928 1.7997,0 4.0001,0 L295.9999,0 C298.2091,0 300,1.789 300,4.0043 L300,27.9957 C300,30.2072 298.2003,32 295.9999,32 L4.0001,32 C1.7909,32 0,30.211 0,27.9957 L0,4.0043 Z" id="Fill-513" fill="#FFFFFF" mask="url(#mask-2)"></path>
                </g>
                <g id="Group-518">
                    <mask id="mask-4" fill="white">
                        <use xlink:href="#path-3"></use>
                    </mask>
                    <g id="Clip-517"></g>
                    <path d="M0,4.004258 C0,1.792767 1.79969,0 4.000056,0 L295.9999,0 C298.2091,0 300,1.789028 300,4.004258 L300,27.99574 C300,30.20723 298.2003,32 295.9999,32 L4.000056,32 C1.790886,32 0,30.21097 0,27.99574 L0,4.004258 Z" id="Stroke-516" stroke="#E6E8ED" stroke-width="2" mask="url(#mask-4)"></path>
                </g>
            </g>
            <g id="Group-532" transform="translate(301.000000, 61.000000)"></g>
            <g id="Group-542" transform="translate(311.000000, 276.000000)">
                <g id="Group-535" transform="translate(1.000000, 0.000000)">
                    <mask id="mask-6" fill="white">
                        <use xlink:href="#path-5"></use>
                    </mask>
                    <g id="Clip-534"></g>
                    <polygon id="Fill-533" fill-opacity="0.4502" fill="#000000" mask="url(#mask-6)" points="-5 23 22 23 22 -5 -5 -5"></polygon>
                </g>
                <g id="Group-538" transform="translate(0.000000, 10.000000)">
                    <mask id="mask-8" fill="white">
                        <use xlink:href="#path-7"></use>
                    </mask>
                    <g id="Clip-537"></g>
                    <polygon id="Fill-536" fill-opacity="0.4502" fill="#000000" mask="url(#mask-8)" points="-5 13 13 13 13 -5 -5 -5"></polygon>
                </g>
                <g id="Group-541" transform="translate(10.000000, 0.000000)">
                    <mask id="mask-10" fill="white">
                        <use xlink:href="#path-9"></use>
                    </mask>
                    <g id="Clip-540"></g>
                    <polygon id="Fill-539" fill-opacity="0.4502" fill="#000000" mask="url(#mask-10)" points="-5 13 13 13 13 -5 -5 -5"></polygon>
                </g>
            </g>
        </g>
    </g>
</svg>